<svg width="24" height="24" viewBox="0 0 24 24" fill="none" xmlns="http://www.w3.org/2000/svg">
<path d="M3.62552 17.9937C2.79243 17.5034 2.79127 16.299 3.62339 15.807L11.6273 11.0751C12.0308 10.8365 12.5329 10.8398 12.9333 11.0835L20.6821 15.7999C21.5017 16.2987 21.493 17.4915 20.6661 17.9782L12.7765 22.6217C12.3792 22.8556 11.8862 22.8556 11.4888 22.6217L3.62552 17.9937Z" fill="#4285F4"/>
<path d="M3.62552 13.4721C2.79243 12.9817 2.79127 11.7774 3.62339 11.2854L11.6273 6.5535C12.0308 6.31496 12.5329 6.31819 12.9333 6.56189L20.6821 11.2782C21.5017 11.7771 21.493 12.9699 20.6661 13.4566L12.7765 18.1002C12.3792 18.334 11.8862 18.334 11.4888 18.1002L3.62552 13.4721Z" fill="#34A853"/>
<path d="M3.62552 8.95037C2.79243 8.46004 2.79127 7.25561 3.62339 6.76367L11.6273 2.03178C12.0308 1.79324 12.5329 1.79646 12.9333 2.04016L20.6821 6.75651C21.5017 7.25535 21.493 8.44813 20.6661 8.93481L12.7765 13.5784C12.3792 13.8123 11.8862 13.8123 11.4888 13.5784L3.62552 8.95037Z" fill="#EB4335"/>
</svg>
